<svg height='100px' width='100px'  fill="#000000" xmlns="http://www.w3.org/2000/svg" xmlns:xlink="http://www.w3.org/1999/xlink" viewBox="0 0 100 100" version="1.1" x="0px" y="0px"><title>12</title><desc>Created with Sketch.</desc><g stroke="none" stroke-width="1" fill="none" fill-rule="evenodd"><g fill="#000000"><path d="M51.8616988,82.0486275 L51.8616988,74.0660784 L63.8586651,65.415098 C64.7358762,64.782549 64.9353135,63.5572549 64.3037294,62.6782353 C63.6727324,61.7996078 62.4498823,61.5996078 61.5718884,62.2323529 L51.8616988,69.2341176 L51.8616988,62.4952941 L51.8616988,62.4911765 L51.8616988,51.0923529 L59.766971,45.3919608 C60.644182,44.7594118 60.8436193,43.5341176 60.2120352,42.655098 C59.5808425,41.7764706 58.3579924,41.5766667 57.4801942,42.2092157 L51.8616988,46.2605882 L51.8616988,34.9872549 C51.8616988,33.9043137 50.9852706,33.0264706 49.9045122,33.0264706 C48.8237538,33.0264706 47.9473257,33.9043137 47.9473257,34.9872549 L47.9473257,58.6068627 L38.3935153,51.7178431 C37.5163043,51.0852941 36.2930627,51.285098 35.6616743,52.1639216 C35.0300902,53.0429412 35.2295275,54.2682353 36.1067385,54.9007843 L47.9473257,63.4384314 L47.9473257,82.0486275 L22.7567691,82.0486275 L49.9045122,7.67019608 L77.0524511,82.0486275 L51.8616988,82.0486275 Z M81.6902003,83.3360784 L51.7427018,1.28745098 C51.4604755,0.514117647 50.7261391,0 49.9045122,0 C49.0828853,0 48.3485489,0.514117647 48.0663226,1.28745098 L18.1190199,83.3360784 C17.8996193,83.9372549 17.9869098,84.6082353 18.3530994,85.1327451 C18.7190933,85.6576471 19.3179924,85.9701961 19.9570138,85.9701961 L47.9473257,85.9701961 L47.9473257,98.0392157 C47.9473257,99.1221569 48.8237538,100 49.9045122,100 C50.9852706,100 51.8616988,99.1221569 51.8616988,98.0392157 L51.8616988,85.9701961 L79.8522064,85.9701961 C80.4912278,85.9701961 81.0901269,85.6576471 81.4563165,85.1327451 C81.8223104,84.6080392 81.9096009,83.9372549 81.6902003,83.3360784 L81.6902003,83.3360784 Z"></path></g></g></svg>