<svg width="861" height="861" fill="none" xmlns="http://www.w3.org/2000/svg"><circle cx="430.568" cy="430.027" r="430" fill="#54B758"/><mask id="a" maskUnits="userSpaceOnUse" x="0" y="0" width="861" height="861"><circle cx="430.568" cy="430.027" r="430" fill="#54B758"/></mask><g mask="url(#a)"><path d="M341.108 863.668V362.397M340.739 647.504c0-63.545 68.398-33.971 68.398-102.218M381.247 865.628v-50.176c-1.273-38.658 30.272-46.829 45.095-55.761l34.396-20.143c13.683-7.602 32.801-15.583 32.801-53.526V456.486" stroke="#fff" stroke-width="27"/><path d="M416.195 871.507V729.1c-1.273-38.658 30.272-48.83 45.095-57.761l78.66-42.921c12.54-7.852 26.945-8.672 26.945-41.266v-44.023" stroke="#fff" stroke-width="27"/><circle cx="341.182" cy="285.836" stroke="#fff" stroke-width="27" r="64.5"/><circle cx="493.539" cy="404.878" stroke="#fff" stroke-width="26" r="40.822"/><circle cx="566.599" cy="516.019" stroke="#fff" stroke-width="20" r="21.393"/><circle cx="409.137" cy="507.011" r="40.944" fill="#fff"/></g></svg>